REM DIRINDEX 1\2,1\3,1\4,1\5
REM DIRNAME "folder01","folder02","folder03","folder04","folder05"
TITLE ""
FILE "1Q_t_0930-0939.mp3" MP3
  TRACK 01 AUDIO
    TITLE "3:cjc172_3744"
    INDEX 01 00:00:00
  TRACK 02 AUDIO
    TITLE "0:"
    INDEX 01 00:01:18
  TRACK 03 AUDIO
    TITLE "4:cjc172_3745"
    INDEX 01 00:01:27
  TRACK 04 AUDIO
    TITLE "0:"
    INDEX 01 00:02:46
  TRACK 05 AUDIO
    TITLE "5:cjc172_3746"
    INDEX 01 00:02:54
  TRACK 06 AUDIO
    TITLE "0:"
    INDEX 01 00:07:22
  TRACK 07 AUDIO
    TITLE "3:cjc172_3747"
    INDEX 01 00:07:67
  TRACK 08 AUDIO
    TITLE "0:"
    INDEX 01 00:09:03
  TRACK 09 AUDIO
    TITLE "4:cjc172_3748"
    INDEX 01 00:09:13
  TRACK 10 AUDIO
    TITLE "0:"
    INDEX 01 00:10:52
  TRACK 11 AUDIO
    TITLE "5:cjc172_3749"
    INDEX 01 00:10:58
  TRACK 12 AUDIO
    TITLE "0:"
    INDEX 01 00:16:21
  TRACK 13 AUDIO
    TITLE "3:cjc172_3750"
    INDEX 01 00:16:66
  TRACK 14 AUDIO
    TITLE "0:"
    INDEX 01 00:18:04
  TRACK 15 AUDIO
    TITLE "4:cjc172_3751"
    INDEX 01 00:18:14
  TRACK 16 AUDIO
    TITLE "0:"
    INDEX 01 00:22:06
  TRACK 17 AUDIO
    TITLE "5:cjc172_3752"
    INDEX 01 00:22:16
  TRACK 18 AUDIO
    TITLE "0:"
    INDEX 01 00:27:66
  TRACK 19 AUDIO
    TITLE "3:cjc172_3753"
    INDEX 01 00:28:38
  TRACK 20 AUDIO
    TITLE "0:"
    INDEX 01 00:29:57
  TRACK 21 AUDIO
    TITLE "4:cjc172_3754"
    INDEX 01 00:29:67
  TRACK 22 AUDIO
    TITLE "0:"
    INDEX 01 00:31:40
  TRACK 23 AUDIO
    TITLE "5:cjc172_3755"
    INDEX 01 00:31:48
  TRACK 24 AUDIO
    TITLE "0:"
    INDEX 01 00:35:32
  TRACK 25 AUDIO
    TITLE "3:cjc172_3756"
    INDEX 01 00:36:02
  TRACK 26 AUDIO
    TITLE "0:"
    INDEX 01 00:37:21
  TRACK 27 AUDIO
    TITLE "4:cjc172_3757"
    INDEX 01 00:37:29
  TRACK 28 AUDIO
    TITLE "0:"
    INDEX 01 00:38:70
  TRACK 29 AUDIO
    TITLE "5:cjc172_3758"
    INDEX 01 00:39:01
  TRACK 30 AUDIO
    TITLE "0:"
    INDEX 01 00:43:16
  TRACK 31 AUDIO
    TITLE "3:cjc172_3759"
    INDEX 01 00:43:61
  TRACK 32 AUDIO
    TITLE "0:"
    INDEX 01 00:45:03
  TRACK 33 AUDIO
    TITLE "4:cjc172_3760"
    INDEX 01 00:45:17
  TRACK 34 AUDIO
    TITLE "0:"
    INDEX 01 00:47:02
  TRACK 35 AUDIO
    TITLE "5:cjc172_3761"
    INDEX 01 00:47:08
  TRACK 36 AUDIO
    TITLE "0:"
    INDEX 01 00:51:21
  TRACK 37 AUDIO
    TITLE "3:cjc172_3762"
    INDEX 01 00:51:66
  TRACK 38 AUDIO
    TITLE "0:"
    INDEX 01 00:53:26
  TRACK 39 AUDIO
    TITLE "4:cjc172_3763"
    INDEX 01 00:53:34
  TRACK 40 AUDIO
    TITLE "0:"
    INDEX 01 00:55:15
  TRACK 41 AUDIO
    TITLE "5:cjc172_3764"
    INDEX 01 00:55:23
  TRACK 42 AUDIO
    TITLE "0:"
    INDEX 01 01:01:45
  TRACK 43 AUDIO
    TITLE "3:cjc172_3765"
    INDEX 01 01:02:15
  TRACK 44 AUDIO
    TITLE "0:"
    INDEX 01 01:03:21
  TRACK 45 AUDIO
    TITLE "4:cjc172_3766"
    INDEX 01 01:03:30
  TRACK 46 AUDIO
    TITLE "0:"
    INDEX 01 01:07:44
  TRACK 47 AUDIO
    TITLE "5:cjc172_3767"
    INDEX 01 01:07:50
  TRACK 48 AUDIO
    TITLE "0:"
    INDEX 01 01:13:45
  TRACK 49 AUDIO
    TITLE "3:cjc172_3768"
    INDEX 01 01:14:17
  TRACK 50 AUDIO
    TITLE "0:"
    INDEX 01 01:15:32
  TRACK 51 AUDIO
    TITLE "4:cjc172_3769"
    INDEX 01 01:15:39
  TRACK 52 AUDIO
    TITLE "0:"
    INDEX 01 01:18:63
  TRACK 53 AUDIO
    TITLE "5:cjc172_3770"
    INDEX 01 01:18:69
  TRACK 54 AUDIO
    TITLE "0:"
    INDEX 01 01:23:00
  TRACK 55 AUDIO
    TITLE "3:cjc172_3771"
    INDEX 01 01:23:45
  TRACK 56 AUDIO
    TITLE "0:"
    INDEX 01 01:24:68
  TRACK 57 AUDIO
    TITLE "4:cjc172_3772"
    INDEX 01 01:25:03
  TRACK 58 AUDIO
    TITLE "0:"
    INDEX 01 01:27:58
  TRACK 59 AUDIO
    TITLE "5:cjc172_3773"
    INDEX 01 01:27:64
  TRACK 60 AUDIO
    TITLE "0:"
    INDEX 01 01:32:60
